<?xml version="1.0" encoding="UTF-8" standalone="no"?>
<svg
   xmlns:dc="http://purl.org/dc/elements/1.1/"
   xmlns:cc="http://creativecommons.org/ns#"
   xmlns:rdf="http://www.w3.org/1999/02/22-rdf-syntax-ns#"
   xmlns:svg="http://www.w3.org/2000/svg"
   xmlns="http://www.w3.org/2000/svg"
   width="90mm"
   height="30mm"
   viewBox="0 0 90 30"
   version="1.1"
   id="svg8">
  <defs
     id="defs2" />
  <metadata
     id="metadata5">
    <rdf:RDF>
      <cc:Work
         rdf:about="">
        <dc:format>image/svg+xml</dc:format>
        <dc:type
           rdf:resource="http://purl.org/dc/dcmitype/StillImage" />
        <dc:title></dc:title>
      </cc:Work>
    </rdf:RDF>
  </metadata>
  <g
     id="layer1">
    <rect
       style="fill:#271474;fill-opacity:1;fill-rule:evenodd;stroke-width:0.264583;image-rendering:auto"
       id="rect172"
       width="90"
       height="30"
       x="5.0515148e-15"
       y="7.2164497e-16" />
    <path
       style="fill:none;fill-opacity:1;stroke-width:0.505076"
       d="m 5.132937,74.003485 v -8.956081 l 1.3498316,2.011282 c 0.7424075,1.106205 3.4893633,4.909157 6.1043464,8.451004 l 4.754516,6.439723 h 11.320784 c 7.797562,0 11.320785,-0.170448 11.320785,-0.54768 0,-0.301224 -2.338871,-3.76731 -5.197492,-7.702413 -6.497578,-8.944399 -6.185056,-8.417424 -4.991947,-8.417424 0.976127,0 4.046318,3.833125 10.214821,12.753176 l 2.706894,3.914341 h 11.513307 c 8.879142,0 11.511069,-0.144447 11.503529,-0.631346 -0.0054,-0.34724 -2.479738,-4.04061 -5.498579,-8.207489 l -5.488805,-7.576144 7.251314,-0.139686 7.251315,-0.139684 1.530259,-2.224161 c 0.841649,-1.223288 1.530265,-2.369543 1.530265,-2.547232 0,-0.177689 0.681853,-1.314111 1.515229,-2.525381 2.576046,-3.74415 2.511623,-3.788072 -5.555839,-3.788072 -3.889087,0 -7.071068,-0.133246 -7.071068,-0.296102 0,-0.162856 2.142428,-3.877086 4.760955,-8.253846 7.279134,-12.166782 7.38565,-12.350822 7.694509,-13.294601 0.274494,-0.838767 6.950612,-0.883884 130.792563,-0.883884 h 130.50331 v 25.75889 25.75889 l -61.49303,-0.05409 c -41.88487,-0.03687 -60.77728,-0.213562 -59.24836,-0.5542 4.22675,-0.941715 7.20811,-4.421137 7.22384,-8.430649 0.004,-1.001111 -0.0225,-6.649994 -0.0587,-12.553073 l -0.0659,-10.732871 h -3.28299 c -2.56706,0 -3.283,0.163597 -3.283,0.750191 0,0.612121 -0.30211,0.56599 -1.6415,-0.250651 -1.97807,-1.206057 -6.80968,-1.365273 -8.86391,-0.292093 -1.74906,0.913749 -3.79487,3.121875 -4.87552,5.262332 -1.15985,2.297331 -1.19219,8.736796 -0.0575,11.450276 2.30335,5.50826 8.18489,7.737152 13.46539,5.102894 2.0479,-1.021626 1.97305,-1.037338 1.97305,0.414193 0,0.673166 -0.58841,1.92323 -1.30759,2.777919 -1.80415,2.144113 -4.28751,2.159466 -6.26855,0.03875 -1.29613,-1.387506 -1.69638,-1.515228 -4.74833,-1.515228 -3.14102,0 -3.33289,0.06687 -3.33289,1.16159 0,2.858623 3.52482,6.270905 7.3236,7.089775 0.55559,0.119764 -44.50353,0.244119 -100.13137,0.276342 L 5.132937,82.959565 Z m 153.543183,3.652779 c 0,-2.639023 0.15257,-4.798224 0.33904,-4.798224 0.18647,0 0.76755,0.387795 1.29128,0.861766 0.6197,0.560825 2.0829,0.933762 4.18996,1.067929 2.79872,0.17821 3.54366,0.02686 5.49424,-1.116253 2.39565,-1.403941 3.85892,-3.137757 4.73604,-5.611667 l 0.53721,-1.515229 0.0418,1.767767 c 0.0585,2.476341 1.73059,4.965383 3.96195,5.897705 2.32929,0.973238 8.09431,0.678183 9.90287,-0.506831 1.0656,-0.698208 1.27023,-0.70747 1.51539,-0.06858 0.21208,0.552683 1.19125,0.738626 3.88957,0.738626 h 3.60614 l -0.36643,-1.38896 c -0.20153,-0.763928 -0.51164,-5.449307 -0.68913,-10.411954 l -0.3227,-9.022995 -1.74136,-1.453755 c -2.1479,-1.793142 -3.9444,-2.151809 -9.35549,-1.8678 -3.54393,0.186009 -4.56331,0.445628 -6.32353,1.610487 -2.06947,1.369505 -3.53422,3.794552 -3.53422,5.851237 0,0.933265 0.31823,1.026375 3.50797,1.026375 3.30256,0 3.54656,-0.07915 4.16688,-1.351664 1.30372,-2.67443 5.98629,-2.513479 6.37604,0.219159 0.19129,1.341238 -0.87077,1.849348 -4.95952,2.372728 -4.68892,0.600205 -6.68816,1.309116 -8.17218,2.897763 l -1.42427,1.524682 -0.0111,-2.957603 c -0.0182,-4.841198 -2.17727,-8.513109 -6.25284,-10.633955 -2.07117,-1.077792 -7.92918,-0.719844 -9.35634,0.57171 -0.9294,0.841114 -1.04723,0.8537 -1.04723,0.111855 0,-0.6982 -0.58239,-0.835895 -3.53553,-0.835895 h -3.53553 l -0.0504,11.237947 c -0.0288,6.419034 -0.22374,10.696496 -0.45472,9.975256 -0.22241,-0.69448 -0.42704,-4.905488 -0.45473,-9.357797 -0.0571,-9.177117 -0.26269,-9.797048 -3.77907,-11.393894 -3.14699,-1.429098 -9.96588,-1.339699 -12.95397,0.169833 -2.56874,1.297689 -4.53051,3.899811 -4.53051,6.009339 v 1.440536 h 3.45446 c 3.20197,0 3.49685,-0.09304 4.0344,-1.272831 1.09954,-2.413218 5.0539,-2.792194 6.22876,-0.596949 0.83201,1.554631 -0.87267,2.670165 -4.72391,3.0913 -6.29971,0.688878 -8.5036,1.886473 -9.4814,5.15219 -0.27459,0.917086 -0.45169,-3.073007 -0.47905,-10.793127 l -0.0434,-12.2481 h -4.04061 -4.04061 v 6.060915 6.060916 h -5.80838 -5.80838 v -6.060916 -6.060915 h -3.78807 -3.78807 v 16.162441 16.162441 h 3.78807 3.78807 v -6.81853 -6.81853 h 5.80838 5.80838 v 6.839775 6.839776 l 3.91434,-0.147515 3.91434,-0.147515 0.29946,-2.525381 c 0.1647,-1.38896 0.34272,-2.070813 0.39561,-1.515229 0.13173,1.383951 1.5564,2.984818 3.59401,4.038507 2.15775,1.115817 8.35871,0.853544 10.32807,-0.436832 1.16995,-0.76658 1.29275,-0.770178 1.29275,-0.03788 0,0.685027 0.58131,0.783668 3.78925,0.642989 l 3.78925,-0.166174 -10e-4,3.830162 c -5.1e-4,2.106589 0.15035,3.981687 0.33554,4.166878 0.18519,0.185196 1.77618,0.336719 3.53554,0.336719 h 3.19881 v -4.798225 z m 140.5152,4.272739 c 2.56774,-0.713143 4.5013,-3.242783 6.19283,-8.101933 0.77551,-2.22777 2.25424,-6.229118 3.28606,-8.891884 l 1.87605,-4.841395 0.32861,3.535732 c 0.52567,5.655958 2.4881,8.970849 6.25271,10.561918 2.42067,1.023064 6.63655,0.868829 8.86254,-0.32423 1.56593,-0.839288 1.88656,-0.882208 1.88656,-0.252538 0,0.596938 0.6996,0.758596 3.28299,0.758596 h 3.283 V 58.210828 42.048387 h -3.53554 -3.53553 v 5.043339 5.043339 l -1.6415,-1.000841 c -1.13816,-0.69395 -2.5422,-1.001419 -4.57889,-1.002729 -3.28969,-0.0021 -4.41732,0.442013 -6.76672,2.66515 l -1.6229,1.535672 0.30384,-1.872355 0.30384,-1.872354 -3.71514,0.149807 -3.71514,0.149807 -2.09685,6.565991 c -2.3739,7.433535 -2.01882,7.508682 -4.77321,-1.010152 l -1.79636,-5.555839 -3.95848,-0.148732 -3.95847,-0.148732 0.2848,1.411422 c 0.15664,0.776283 0.45459,1.865992 0.66211,2.421576 0.26964,0.721856 -0.0482,0.561148 -1.11367,-0.563104 -2.49206,-2.629547 -5.2331,-3.730044 -9.29053,-3.730044 -4.39932,0 -6.72418,0.9155 -9.16005,3.607114 -2.35104,2.597863 -3.16352,5.48162 -2.86314,10.162163 0.43765,6.819611 4.14289,10.472244 11.03121,10.87462 3.1637,0.184805 4.26076,0.02872 6.46604,-0.919968 4.5261,-1.947076 7.16666,-7.36579 6.46723,-13.271435 -0.16339,-1.379545 -0.19371,-2.404909 -0.0674,-2.278587 0.41748,0.417479 5.79987,14.965298 5.79987,15.676204 0,1.282714 -1.19276,1.908778 -3.63655,1.908778 h -2.42437 v 2.99533 c 0,2.704694 0.11027,3.016568 1.13643,3.214215 2.15304,0.414692 4.67667,0.349502 6.54371,-0.169039 z M 259.69138,70.837735 v -3.535534 h -7.57615 -7.57614 V 54.675294 42.048387 h -3.78807 -3.78807 v 16.162441 16.162441 h 11.36421 11.36422 z m 7.57614,-12.626907 V 42.048387 h -3.53553 -3.53554 v 16.162441 16.162441 h 3.53554 3.53553 z m -30.80965,3.535534 v -3.030458 h -7.07107 -7.07107 v 3.030458 3.030457 h 7.07107 7.07107 z"
       id="path998"
       transform="scale(0.26458333)" />
  </g>
  <g
     id="layer2">
    <g
       id="g1285"
       transform="matrix(0.39141241,0,0,0.39141241,22.694971,2.4936107)"
       style="fill:#ffffff">
      <path
         fill="#271474"
         d="m 26.592,23.517 h -4.333 l 2.408,-7.462 z M 43.444,38.443 33.055,4.659 H 16.525 L 6.37,38.443 h 12.519 l 1.685,-5.777 h 8.666 l 1.445,5.837 z"
         id="path1260"
         style="fill:#ffffff" />
      <g
         id="g1264"
         style="fill:#ffffff">
	<path
   fill="#271474"
   d="m 76.969,17.318 c 0,0 -1.988,-9.301 -7.766,-12.338 C 64.509,2.512 54.999,2.632 50.428,4.658 c -4.596,2.035 -8.609,8.266 -8.97,14.826 -0.439,7.947 3.908,15.231 8.967,17.995 5.177,2.829 12.88,3.13 18.056,-0.24 4.884,-3.181 6.74,-6.5 7.463,-9.389 0.722,-2.889 0.843,-3.852 0.843,-3.852 H 63.666 c 0,0 -0.061,3.009 -1.926,4.574 -1.717,1.439 -4.152,1.504 -6.018,-0.722 -2.017,-2.406 -2.075,-7.452 -1.685,-10.111 0.36,-2.468 1.745,-5.056 3.37,-5.537 1.86,-0.551 3.852,-0.241 4.815,1.204 0.963,1.444 1.444,3.851 1.444,3.851 z"
   id="path1262"
   style="fill:#ffffff" />

</g>
      <polygon
         fill="#271474"
         points="91.292,4.658 78.414,4.658 78.352,38.442 108.083,38.503 108.022,26.947 91.352,26.887 "
         id="polygon1266"
         style="fill:#ffffff" />
      <g
         id="g1270"
         style="fill:#ffffff">
	<path
   fill="#271474"
   d="m 5.889,42.834 c 0,0 5.475,5.068 14.984,4.997 8.065,-0.061 13.904,-6.733 24.738,-6.801 9.75,-0.06 14.625,6.74 23.111,6.74 9.148,0 14.504,-6.74 24.315,-6.74 9.388,0 14.985,4.574 14.985,4.574 l 0.061,13.845 c 0,0 -6.921,-5.115 -14.926,-5.058 -8.546,0.06 -15.287,6.38 -24.435,6.38 -9.148,0 -13.961,-6.44 -23.35,-6.44 -9.328,0 -13.001,6.44 -24.557,6.44 -11.556,0 -14.926,-4.092 -14.926,-4.092 z"
   id="path1268"
   style="fill:#ffffff" />

</g>
    </g>
  </g>
</svg>
